<?xml version="1.0" encoding="UTF-8" standalone="no"?>
<!-- Created with Inkscape (http://www.inkscape.org/) -->

<svg
   xmlns:dc="http://purl.org/dc/elements/1.1/"
   xmlns:cc="http://creativecommons.org/ns#"
   xmlns:rdf="http://www.w3.org/1999/02/22-rdf-syntax-ns#"
   xmlns:svg="http://www.w3.org/2000/svg"
   xmlns="http://www.w3.org/2000/svg"
   xmlns:sodipodi="http://sodipodi.sourceforge.net/DTD/sodipodi-0.dtd"
   xmlns:inkscape="http://www.inkscape.org/namespaces/inkscape"
   id="svg2"
   version="1.1"
   inkscape:version="0.91 r13725"
   xml:space="preserve"
   width="240"
   height="240"
   viewBox="0 0 240 240"
   sodipodi:docname="man.svg"><metadata
     id="metadata8"><rdf:RDF><cc:Work
         rdf:about=""><dc:format>image/svg+xml</dc:format><dc:type
           rdf:resource="http://purl.org/dc/dcmitype/StillImage" /><dc:title></dc:title></cc:Work></rdf:RDF></metadata><defs
     id="defs6"><clipPath
       clipPathUnits="userSpaceOnUse"
       id="clipPath16"><path
         d="M 0,192 192,192 192,0 0,0 0,192 Z"
         id="path18"
         inkscape:connector-curvature="0" /></clipPath><clipPath
       clipPathUnits="userSpaceOnUse"
       id="clipPath24"><path
         d="m 33.5488,158.451 248.9022,0 0,-248.9022 -248.9022,0 0,248.9022 z"
         id="path26"
         inkscape:connector-curvature="0" /></clipPath><clipPath
       clipPathUnits="userSpaceOnUse"
       id="clipPath28"><path
         d="M 158,-90.451 33.549,34 158,158.451 282.451,34 158,-90.451 Z"
         id="path30"
         inkscape:connector-curvature="0" /></clipPath><linearGradient
       x1="0"
       y1="0"
       x2="1"
       y2="0"
       gradientUnits="userSpaceOnUse"
       gradientTransform="matrix(-121.33324,121.66661,121.66661,121.33324,214.58253,-22.737997)"
       spreadMethod="pad"
       id="linearGradient36"><stop
         style="stop-opacity:0;stop-color:#ffffff"
         offset="0"
         id="stop38" /><stop
         style="stop-opacity:0;stop-color:#ffffff"
         offset="0.72566061"
         id="stop40" /><stop
         style="stop-opacity:1;stop-color:#ffffff"
         offset="1"
         id="stop42" /></linearGradient><mask
       maskUnits="userSpaceOnUse"
       x="0"
       y="0"
       width="1"
       height="1"
       id="mask44"><g
         id="g46"><g
           id="g48"><g
             id="g50"><g
               id="g52"><path
                 d="m -32768,32767 65535,0 0,-65535 -65535,0 0,65535 z"
                 style="fill:url(#linearGradient36);stroke:none"
                 id="path54"
                 inkscape:connector-curvature="0" /></g></g></g></g></mask><linearGradient
       x1="0"
       y1="0"
       x2="1"
       y2="0"
       gradientUnits="userSpaceOnUse"
       gradientTransform="matrix(-121.33324,121.66661,121.66661,121.33324,214.58253,-22.737997)"
       spreadMethod="pad"
       id="linearGradient56"><stop
         style="stop-opacity:1;stop-color:#1d1d1b"
         offset="0"
         id="stop58" /><stop
         style="stop-opacity:1;stop-color:#1d1d1b"
         offset="0.72566061"
         id="stop60" /><stop
         style="stop-opacity:1;stop-color:#1d1d1b"
         offset="1"
         id="stop62" /></linearGradient><clipPath
       clipPathUnits="userSpaceOnUse"
       id="clipPath90"><path
         d="M 33.774,158.225 C -0.591,123.86 -0.592,68.141 33.774,33.774 l 0,0 c 34.367,-34.364 90.086,-34.364 124.451,0 l 0,0 c 34.367,34.367 34.366,90.086 0,124.451 l 0,0 C 141.043,175.408 118.521,184 96,184 l 0,0 c -22.521,0 -45.042,-8.592 -62.226,-25.775"
         id="path92"
         inkscape:connector-curvature="0" /></clipPath><clipPath
       clipPathUnits="userSpaceOnUse"
       id="clipPath102"><path
         d="m 77.76,74.72 c 0,0 -6.08,-3.04 -42.56,-21.28 l 0,0 c -5.601,-2.8 -8.623,-4.311 -10.549,-8.973 l 0,0 c 2.71,-3.744 5.75,-7.32 9.123,-10.693 l 0,0 c 34.367,-34.364 90.086,-34.364 124.451,0 l 0,0 c 3.373,3.373 6.413,6.949 9.124,10.693 l 0,0 c -1.927,4.662 -4.948,6.173 -10.549,8.973 l 0,0 c -38.932,19.465 -42.559,21.28 -42.559,21.28 l 0,0 -36.481,0 z"
         id="path104"
         inkscape:connector-curvature="0" /></clipPath><clipPath
       clipPathUnits="userSpaceOnUse"
       id="clipPath110"><path
         d="M 19.7451,64.1807 96,64.1807 96,8 19.7451,8 l 0,56.1807 z"
         id="path112"
         inkscape:connector-curvature="0" /></clipPath><clipPath
       clipPathUnits="userSpaceOnUse"
       id="clipPath114"><path
         d="M 19.7451,64.1807 96,64.1807 96,8 19.7451,8 l 0,56.1807 z"
         id="path116"
         inkscape:connector-curvature="0" /></clipPath><clipPath
       clipPathUnits="userSpaceOnUse"
       id="clipPath138"><path
         d="M 33.774,158.225 C -0.591,123.86 -0.592,68.141 33.774,33.774 l 0,0 c 34.367,-34.364 90.086,-34.364 124.451,0 l 0,0 c 34.367,34.367 34.366,90.086 0,124.451 l 0,0 C 141.043,175.408 118.521,184 96,184 l 0,0 c -22.521,0 -45.042,-8.592 -62.226,-25.775"
         id="path140"
         inkscape:connector-curvature="0" /></clipPath><clipPath
       clipPathUnits="userSpaceOnUse"
       id="clipPath150"><path
         d="m 71.68,96 0,-24.32 c 0,-12.159 3.04,-21.191 24.32,-30.4 l 0,0 c 21.28,9.209 24.32,18.241 24.32,30.4 l 0,0 0,24.32 -48.64,0 z"
         id="path152"
         inkscape:connector-curvature="0" /></clipPath><clipPath
       clipPathUnits="userSpaceOnUse"
       id="clipPath158"><path
         d="m 75.7891,105.401 54.7549,0 0,-63.1617 -54.7549,0 0,63.1617 z"
         id="path160"
         inkscape:connector-curvature="0" /></clipPath><clipPath
       clipPathUnits="userSpaceOnUse"
       id="clipPath174"><path
         d="m 69.1445,92.96 55.2305,0 0,-59.7911 -55.2305,0 0,59.7911 z"
         id="path176"
         inkscape:connector-curvature="0" /></clipPath><clipPath
       clipPathUnits="userSpaceOnUse"
       id="clipPath188"><path
         d="M 33.774,158.225 C -0.591,123.86 -0.592,68.141 33.774,33.774 l 0,0 c 34.367,-34.364 90.086,-34.364 124.451,0 l 0,0 c 34.367,34.367 34.366,90.086 0,124.451 l 0,0 C 141.043,175.408 118.521,184 96,184 l 0,0 c -22.521,0 -45.042,-8.592 -62.226,-25.775"
         id="path190"
         inkscape:connector-curvature="0" /></clipPath><clipPath
       clipPathUnits="userSpaceOnUse"
       id="clipPath200"><path
         d="m 56.48,132.479 0,-24.32 c 0,-17.825 16.878,-41.04 39.521,-41.04 l 0,0 c 22.639,0 39.519,23.219 39.519,41.04 l 0,0 0,21.281 c 0,16.898 -8.074,42.56 -39.519,42.56 l 0,0 C 64.553,172 56.48,149.378 56.48,132.479"
         id="path202"
         inkscape:connector-curvature="0" /></clipPath><clipPath
       clipPathUnits="userSpaceOnUse"
       id="clipPath208"><path
         d="m 56.4805,172 39.5205,0 0,-106.4004 -39.5205,0 0,106.4004 z"
         id="path210"
         inkscape:connector-curvature="0" /></clipPath><clipPath
       clipPathUnits="userSpaceOnUse"
       id="clipPath226"><path
         d="m 96.001,148.956 42.559,0 0,-83.3564 -42.559,0 0,83.3564 z"
         id="path228"
         inkscape:connector-curvature="0" /></clipPath><clipPath
       clipPathUnits="userSpaceOnUse"
       id="clipPath242"><path
         d="m 56.4805,172 39.5205,0 0,-77.0039 -39.5205,0 0,77.0039 z"
         id="path244"
         inkscape:connector-curvature="0" /></clipPath><clipPath
       clipPathUnits="userSpaceOnUse"
       id="clipPath258"><path
         d="M 33.774,158.225 C -0.591,123.86 -0.592,68.141 33.774,33.774 l 0,0 c 34.367,-34.364 90.086,-34.364 124.451,0 l 0,0 c 34.367,34.367 34.366,90.086 0,124.451 l 0,0 C 141.043,175.408 118.521,184 96,184 l 0,0 c -22.521,0 -45.042,-8.592 -62.226,-25.775"
         id="path260"
         inkscape:connector-curvature="0" /></clipPath><clipPath
       clipPathUnits="userSpaceOnUse"
       id="clipPath266"><path
         d="m 74.7207,126.399 9.1196,0 0,-12.159 -9.1196,0 0,12.159 z"
         id="path268"
         inkscape:connector-curvature="0" /></clipPath><clipPath
       clipPathUnits="userSpaceOnUse"
       id="clipPath282"><path
         d="m 108.161,126.399 9.119,0 0,-12.159 -9.119,0 0,12.159 z"
         id="path284"
         inkscape:connector-curvature="0" /></clipPath></defs><sodipodi:namedview
     pagecolor="#ffffff"
     bordercolor="#666666"
     borderopacity="1"
     objecttolerance="10"
     gridtolerance="10"
     guidetolerance="10"
     inkscape:pageopacity="0"
     inkscape:pageshadow="2"
     inkscape:window-width="640"
     inkscape:window-height="480"
     id="namedview4"
     showgrid="false"
     inkscape:zoom="0.98333333"
     inkscape:cx="120"
     inkscape:cy="120"
     inkscape:window-x="2274"
     inkscape:window-y="303"
     inkscape:window-maximized="0"
     inkscape:current-layer="g10" /><g
     id="g10"
     inkscape:groupmode="layer"
     inkscape:label="man"
     transform="matrix(1.25,0,0,-1.25,0,240)"><g
       id="g12"><g
         id="g14"
         clip-path="url(#clipPath16)"><g
           id="g20"><g
             id="g22" /><g
             id="g64"><g
               clip-path="url(#clipPath24)"
               id="g66"
               style="opacity:0.5"><g
                 id="g68"><g
                   clip-path="url(#clipPath28)"
                   id="g70"><g
                     id="g72"><g
                       id="g74" /><g
                       mask="url(#mask44)"
                       id="g76"><g
                         id="g78"><path
                           d="M 158,-90.451 33.549,34 158,158.451 282.451,34 158,-90.451 Z"
                           style="fill:url(#linearGradient56);stroke:none"
                           id="path80"
                           inkscape:connector-curvature="0" /></g></g></g></g></g></g></g></g><g
           id="g82"
           transform="translate(184,96)"><path
             d="m 0,0 c 0,-48.601 -39.399,-88 -88,-88 -48.602,0 -88,39.399 -88,88 0,48.601 39.398,88 88,88 C -39.399,88 0,48.601 0,0"
             style="fill:#93c01f;fill-opacity:1;fill-rule:nonzero;stroke:none"
             id="path84"
             inkscape:connector-curvature="0" /></g></g></g><g
       id="g86"
       transform="translate(0,-1.6)"><g
         id="g88"
         clip-path="url(#clipPath90)"><g
           id="g94"
           transform="translate(77.7598,74.7197)"><path
             d="m 0,0 c 0,0 -6.08,-3.04 -42.56,-21.279 -12.16,-6.08 -12.16,-6.08 -15.2,-45.441 l 152,0 C 91.2,-27.359 91.2,-27.359 79.04,-21.279 40.108,-1.814 36.48,0 36.48,0 L 0,0 Z"
             style="fill:#47475e;fill-opacity:1;fill-rule:nonzero;stroke:none"
             id="path96"
             inkscape:connector-curvature="0" /></g></g></g><g
       id="g98"><g
         id="g100"
         clip-path="url(#clipPath102)"><g
           id="g106"><g
             id="g108" /><g
             id="g118"><g
               clip-path="url(#clipPath110)"
               id="g120"
               style="opacity:0.19999701"><g
                 id="g122"><g
                   id="g124" /><g
                   id="g126"><g
                     clip-path="url(#clipPath114)"
                     id="g128"
                     style="opacity:0.30000299"><g
                       transform="translate(96,8)"
                       id="g130"><path
                         d="m 0,0 -76.255,0 0.255,56.181 24.064,0 L 0,26.196 0,0 Z"
                         style="fill:#ffffff;fill-opacity:1;fill-rule:nonzero;stroke:none"
                         id="path132"
                         inkscape:connector-curvature="0" /></g></g></g></g></g></g></g></g></g><g
       id="g134"><g
         id="g136"
         clip-path="url(#clipPath138)"><g
           id="g142"
           transform="translate(96,41.2803)"><path
             d="m 0,0 c -21.28,9.209 -24.32,18.24 -24.32,30.399 l 0,24.321 48.64,0 0,-24.321 C 24.32,18.24 21.28,9.209 0,0"
             style="fill:#85ded8;fill-opacity:1;fill-rule:evenodd;stroke:none"
             id="path144"
             inkscape:connector-curvature="0" /></g></g></g><g
       id="g146"><g
         id="g148"
         clip-path="url(#clipPath150)"><g
           id="g154"><g
             id="g156" /><g
             id="g162"><g
               clip-path="url(#clipPath158)"
               id="g164"
               style="opacity:0.14999402"><g
                 transform="translate(75.7891,73.7344)"
                 id="g166"><path
                   d="m 0,0 54.702,31.581 0.053,0.086 0,-63.162 -27.354,15.791 -0.047,-0.087 L 0,0 Z"
                   style="fill:#231f20;fill-opacity:1;fill-rule:nonzero;stroke:none"
                   id="path168"
                   inkscape:connector-curvature="0" /></g></g></g></g><g
           id="g170"><g
             id="g172" /><g
             id="g178"><g
               clip-path="url(#clipPath174)"
               id="g180"
               style="opacity:0.14999402"><path
                 d="m 124.375,92.96 -55.23,0 0,-59.791 55.23,0 0,59.791 z"
                 style="fill:#231f20;fill-opacity:1;fill-rule:nonzero;stroke:none"
                 id="path182"
                 inkscape:connector-curvature="0" /></g></g></g></g></g><g
       id="g184"><g
         id="g186"
         clip-path="url(#clipPath188)"><g
           id="g192"
           transform="translate(96.001,172)"><path
             d="m 0,0 c 31.445,0 39.519,-25.662 39.519,-42.561 l 0,-21.28 c 0,-17.821 -16.88,-41.04 -39.519,-41.04 -22.643,0 -39.521,23.215 -39.521,41.04 l 0,24.32 C -39.521,-22.623 -31.448,0 0,0"
             style="fill:#85ded8;fill-opacity:1;fill-rule:evenodd;stroke:none"
             id="path194"
             inkscape:connector-curvature="0" /></g></g></g><g
       id="g196"><g
         id="g198"
         clip-path="url(#clipPath200)"><g
           id="g204"><g
             id="g206" /><g
             id="g212"><g
               clip-path="url(#clipPath208)"
               id="g214"
               style="opacity:0.14999402"><path
                 d="m 56.48,172 39.521,0 0,-106.4 -39.521,0 0,106.4 z"
                 style="fill:#ffffff;fill-opacity:1;fill-rule:nonzero;stroke:none"
                 id="path216"
                 inkscape:connector-curvature="0" /></g></g></g><g
           id="g218"
           transform="translate(77.7603,92.959)"><path
             d="m 0,0 36.48,0 c 0,0 -6.086,-12.16 -18.239,-12.16 C 6.08,-12.16 0,0 0,0"
             style="fill:#ffffff;fill-opacity:1;fill-rule:evenodd;stroke:none"
             id="path220"
             inkscape:connector-curvature="0" /></g><g
           id="g222"><g
             id="g224" /><g
             id="g230"><g
               clip-path="url(#clipPath226)"
               id="g232"
               style="opacity:0.14999402"><g
                 transform="translate(136.8086,148.9561)"
                 id="g234"><path
                   d="m 0,0 -40.808,-23.56 0,-30.4 0,-29.396 42.559,0 L 0,0 Z"
                   style="fill:#231f20;fill-opacity:1;fill-rule:nonzero;stroke:none"
                   id="path236"
                   inkscape:connector-curvature="0" /></g></g></g></g><g
           id="g238"><g
             id="g240" /><g
             id="g246"><g
               clip-path="url(#clipPath242)"
               id="g248"
               style="opacity:0.30000299"><g
                 transform="translate(96.001,125.396)"
                 id="g250"><path
                   d="m 0,0 0,46.604 -39.521,0 0,-54.19 L 0,-30.4 0,0 Z"
                   style="fill:#ffffff;fill-opacity:1;fill-rule:nonzero;stroke:none"
                   id="path252"
                   inkscape:connector-curvature="0" /></g></g></g></g></g></g><g
       id="g254"><g
         id="g256"
         clip-path="url(#clipPath258)"><g
           id="g262"><g
             id="g264" /><g
             id="g270"><g
               clip-path="url(#clipPath266)"
               id="g272"
               style="opacity:0.60000598"><g
                 transform="translate(83.8403,120.3193)"
                 id="g274"><path
                   d="m 0,0 c 0,-3.358 -2.042,-6.08 -4.56,-6.08 -2.517,0 -4.56,2.722 -4.56,6.08 0,3.357 2.043,6.08 4.56,6.08 C -2.042,6.08 0,3.357 0,0"
                   style="fill:#231f20;fill-opacity:1;fill-rule:nonzero;stroke:none"
                   id="path276"
                   inkscape:connector-curvature="0" /></g></g></g></g><g
           id="g278"><g
             id="g280" /><g
             id="g286"><g
               clip-path="url(#clipPath282)"
               id="g288"
               style="opacity:0.60000598"><g
                 transform="translate(117.2803,120.3193)"
                 id="g290"><path
                   d="m 0,0 c 0,-3.358 -2.042,-6.08 -4.559,-6.08 -2.517,0 -4.56,2.722 -4.56,6.08 0,3.357 2.043,6.08 4.56,6.08 C -2.042,6.08 0,3.357 0,0"
                   style="fill:#231f20;fill-opacity:1;fill-rule:nonzero;stroke:none"
                   id="path292"
                   inkscape:connector-curvature="0" /></g></g></g></g></g></g></g></svg>